<svg xmlns="http://www.w3.org/2000/svg" viewBox="0 0 596 252"><defs><style>.cls-1{fill:#640600;}.cls-2{fill:#fff;}</style></defs><title>logomark</title><g id="background"><path id="diamond-fill" d="M298,0S101,123,0,123c101,0,298,129,298,129S495,123,596,123C495,123,298,0,298,0Z"/><path id="diamond" class="cls-1" d="M298,5.87c11.08,6.78,55.57,33.6,108.9,60.11C443,83.92,476.07,98.23,505.16,108.5a415,415,0,0,0,50.39,14.62,399.2,399.2,0,0,0-50.46,15.35c-29.1,10.77-62.17,25.77-98.28,44.6-53.18,27.72-97.58,55.77-108.81,63-11.23-7.21-55.63-35.26-108.81-63-36.11-18.83-69.18-33.83-98.28-44.6a399.2,399.2,0,0,0-50.46-15.35A415,415,0,0,0,90.84,108.5C119.93,98.23,153,83.92,189.1,66,242.43,39.47,286.92,12.65,298,5.87M298,0S101,123,0,123c101,0,298,129,298,129S495,123,596,123C495,123,298,0,298,0Z"/></g><g id="logotype"><g id="nature"><path class="cls-2" d="M167.55,186h1.31v.68H154.71V186H156a4.1,4.1,0,0,0,2.95-1.2,4,4,0,0,0,1.23-3v-33.4c1.11.22,2.16.4,3.16.52v32.95a4,4,0,0,0,1.24,2.92A4.09,4.09,0,0,0,167.55,186Zm-7.47-43.82a27.42,27.42,0,0,0,6.8,2.47l-6.61-7.06h-.68l.13,1.1C159.88,139.75,160,140.91,160.08,142.15Zm32-2.87h1.31a4.09,4.09,0,0,1,2.95,1.2,4.26,4.26,0,0,1,1.31,3v34.06L171,149c-1.38.09-2.82.14-4.32.14-.63,0-1.31,0-2-.1l36.13,38.59h.61l-.13-1.24a56.73,56.73,0,0,1-.48-7.55V143.4a4.14,4.14,0,0,1,1.3-2.92,4.09,4.09,0,0,1,2.95-1.2h1.24v-.69H192.13Zm93.87-.76H257.84a13.28,13.28,0,0,0-5.9,1.27,9.08,9.08,0,0,0-3.78,3.09,7.83,7.83,0,0,0-1.16,4.33,7.91,7.91,0,0,0,2.12,5l.55-.34a8.94,8.94,0,0,1-1.1-4.09,6.26,6.26,0,0,1,1.31-3.74q2.48-3.5,8-3.5H272.2v41.2a4.27,4.27,0,0,1-1.34,2.95A4.22,4.22,0,0,1,267.8,186h-.89v.68h15V186h-.9a4.62,4.62,0,0,1-2.19-.55,4.16,4.16,0,0,1-2.2-3.71V140.58h13a4.18,4.18,0,0,1,3.92,4.12v1.17l.69.07v-8.66a19,19,0,0,1-3.61.83A30.51,30.51,0,0,1,286,138.52Zm118.85,57.06a26.21,26.21,0,0,1-4.56-3.19c-1.72-1.44-3.7-3.29-5.94-5.53s-7.33-7.74-15.25-16.48c-2-2.2-3.73-4.12-5.28-5.77h.07a10.36,10.36,0,0,0,8.23-4,14.48,14.48,0,0,0,3.37-9.62,11.68,11.68,0,0,0-3.67-9,13.73,13.73,0,0,0-9.72-3.4H353.56v.69h.89a4.17,4.17,0,0,1,3.06,1.27,4.4,4.4,0,0,1,1.34,3v38.11a4.48,4.48,0,0,1-4.4,4.26h-.89v.68h15l-.07-.68h-.82a4.41,4.41,0,0,1-4.4-4.33V140.72h8.52a7.5,7.5,0,0,1,6.28,3.09,13.18,13.18,0,0,1,2.23,8q0,6-4,8.65a8,8,0,0,1-2.54,1.2,17.71,17.71,0,0,1-2.85.62,50.37,50.37,0,0,1-5.32.17v.69c.87.09,2.1,1,3.71,2.82s4.85,5.39,9.75,10.81,8.2,9.12,9.92,11.09a43.92,43.92,0,0,0,5.73,5.49,22.92,22.92,0,0,0,3.43,2.54,25.2,25.2,0,0,0,3.68,1.82,17.31,17.31,0,0,0,3.67,1.07,25.62,25.62,0,0,0,3.95.27,20.54,20.54,0,0,0,5.11-.75v-.69a10,10,0,0,1-1.64.14A16.81,16.81,0,0,1,404.85,195.58Zm30.08-20.05a16.8,16.8,0,0,1-4.46,6.73q-2.69,2.27-7.76,2.27H408.08V164H421.2a3.35,3.35,0,0,1,2.3,1,3.29,3.29,0,0,1,.92,2.34v1h.69V157.54h-.69v1a3.26,3.26,0,0,1-1,2.4,3.37,3.37,0,0,1-2.33,1H408.08V140.72h7.83a4,4,0,0,1,3.84,4.05V146h.69v-8.65a19,19,0,0,1-3.54.83,29.16,29.16,0,0,1-4.63.41H398.33l.07.69h.82a4.53,4.53,0,0,1,3.09,1.13,3.54,3.54,0,0,1,1.31,2.78v38.45a4.49,4.49,0,0,1-1.34,3.06,4.21,4.21,0,0,1-3.06,1.27h-.89v.68h33.3l4-11.12Zm-161.7,24.24.06.69a20.36,20.36,0,0,1-6.45,1.09,13.73,13.73,0,0,1-6.32-1.61,22,22,0,0,1-5.9-4.5q-5.91-6-10-18.19l-2.68-7.83H223.1l-4.74,12.22a4.24,4.24,0,0,0-.34,1.65,2.91,2.91,0,0,0,.72,1.75A2.64,2.64,0,0,0,221,186h.55v.68h-13.8V186h.62a6,6,0,0,0,3.23-1,7.4,7.4,0,0,0,2.6-3l17-40.78q-3.7-5.3-9.2-5.29a15.27,15.27,0,0,0-5.28,1l-.21-.69a22.43,22.43,0,0,1,8.58-1.85,12.4,12.4,0,0,1,7.07,2.54,18.35,18.35,0,0,1,4.47,5.36,62.15,62.15,0,0,1,4.19,9.95L249.19,176a66.69,66.69,0,0,0,5.87,12.67,39.23,39.23,0,0,0,5.46,7.07,14.71,14.71,0,0,0,5.15,3.33,13.75,13.75,0,0,0,4.43,1A16.37,16.37,0,0,0,273.23,199.77Zm-32-32.41-5.43-16a60.69,60.69,0,0,0-2.88-7.21l-9.06,23.21Zm92.08-28.08h1.09a3.67,3.67,0,0,1,2.55.92,3.27,3.27,0,0,1,1.09,2.37v27.12q0,7.08-4.18,11.44a14.51,14.51,0,0,1-10.92,4.36,13.58,13.58,0,0,1-10.75-4.6q-4-4.6-4-12.09V142.57a3.32,3.32,0,0,1,1.1-2.37,3.66,3.66,0,0,1,2.54-.92h1.1v-.69H299v.69h1.1a4,4,0,0,1,1.86.41,3.2,3.2,0,0,1,1.78,3v27q0,8,5.25,13t13.7,4.91q8.44,0,13.53-5t5.08-13V142.5a3.17,3.17,0,0,1,1.13-2.3,3.69,3.69,0,0,1,2.51-.92H346v-.69h-12.7Z"/></g><g id="onsters"><path class="cls-2" d="M170.56,89.57a5.76,5.76,0,0,1-.31-1.72c0-.48,0-1,.08-1.64s.16-1.44.34-2.51a11.46,11.46,0,0,1,1-3.16,23.93,23.93,0,0,1,1.75-3A11.86,11.86,0,0,1,176,74.86a18.47,18.47,0,0,1,3.46-2.14,22.21,22.21,0,0,1,9.84-2q11.66,0,19,7.74t7.36,19.78a26,26,0,0,1-8.69,20q-8.69,8-22,8t-22.14-7.93Q154,110.38,154,97.72a27.53,27.53,0,0,1,3.81-14.48,26.11,26.11,0,0,1,10.9-9.91l.45.69a18.13,18.13,0,0,0-7.12,9.45,39.2,39.2,0,0,0-2.17,13.11q0,12.89,7,20.12t18,7.24q11,0,18-7.28t7-19.17q0-10.29-5.53-17.37T188.7,73a20.11,20.11,0,0,0-8.16,1.6,14.83,14.83,0,0,0-8.76,9.3,10.91,10.91,0,0,0-.61,3.27,12.93,12.93,0,0,0,.15,2.21Zm106.85-17a4.59,4.59,0,0,0-3.28,1.33,4.63,4.63,0,0,0-1.44,3.24v39.33a62.32,62.32,0,0,0,.53,8.39l.15,1.37h-.68L231.15,81.87v38a4.29,4.29,0,0,0,1.37,3.23,4.54,4.54,0,0,0,3.28,1.34h1.44v.76h-15.7v-.76H223a4.56,4.56,0,0,0,3.28-1.34,4.43,4.43,0,0,0,1.37-3.31V80.19a59,59,0,0,0-.53-8.31L227,70.67h.76L269.26,115V77.22a4.78,4.78,0,0,0-1.45-3.32,4.59,4.59,0,0,0-3.28-1.33h-1.45v-.76h15.7v.76Zm13.11,32.32a18.07,18.07,0,0,0-4,11.2,12.57,12.57,0,0,0,6,11.13,13.93,13.93,0,0,0,8,2.36,16.17,16.17,0,0,0,7.74-1.75c4.11-2.14,6.43-5.72,6.93-10.75a7.59,7.59,0,0,0,.08-1.07,14.27,14.27,0,0,0-1.56-6.09,17,17,0,0,0-5.07-6L294.94,93.07a11,11,0,0,1-4.5-9.07A13.3,13.3,0,0,1,294,74.59a12.59,12.59,0,0,1,9.68-3.85,32.59,32.59,0,0,1,6.63.76h3.05l.15,9.38h-.76a7.3,7.3,0,0,0-2.63-5.76A9.82,9.82,0,0,0,303.74,73a8.79,8.79,0,0,0-9,9.11,8.2,8.2,0,0,0,3.36,6.67l14.1,11.12q8.37,6.63,8.38,16A15.68,15.68,0,0,1,315,128c-3.21,2.9-7.47,4.35-12.81,4.35a19.84,19.84,0,0,1-8.69-1.83,14.76,14.76,0,0,1-8.61-11.44,17.36,17.36,0,0,1-.23-3.08,17.57,17.57,0,0,1,1.07-5.11,18.11,18.11,0,0,1,4.11-6.52Zm77.67-26.3A4.64,4.64,0,0,0,363.84,74H349.36v45.65a4.8,4.8,0,0,0,1.49,3.36,4.7,4.7,0,0,0,3.39,1.37h1v.76H338.54v-.76h1a4.89,4.89,0,0,0,4.88-4.65V74H329.92a4.34,4.34,0,0,0-3.08,1.41,4.44,4.44,0,0,0-1.26,3.16v1.3l-.76.07v-9.6a20.32,20.32,0,0,0,4,.91,32,32,0,0,0,5.18.46h25.76a28.4,28.4,0,0,0,6.22-.57,26.74,26.74,0,0,0,3-.8V80l-.76-.07ZM376,124.4a4.62,4.62,0,0,0,3.39-1.41,4.9,4.9,0,0,0,1.49-3.39V76.91a4,4,0,0,0-1.45-3.08A5.07,5.07,0,0,0,376,72.57h-.91l-.08-.76h15.47a31.38,31.38,0,0,0,5.15-.46,21.09,21.09,0,0,0,3.92-.91V80h-.76V78.67a4.5,4.5,0,0,0-4.27-4.5h-8.69V97.72h14.48a3.8,3.8,0,0,0,2.59-1.14,3.63,3.63,0,0,0,1.07-2.67V92.84h.76v12h-.76v-1.15a3.58,3.58,0,0,0-1-2.59,3.67,3.67,0,0,0-2.55-1.14H385.79V122.8H402c3.75,0,6.63-.84,8.61-2.52a18.53,18.53,0,0,0,4.95-7.47h.76l-4.42,12.35H375v-.76Zm60.21-50.23h-4.88V119.6A4.62,4.62,0,0,0,432.7,123a4.72,4.72,0,0,0,3.47,1.41h.92l.07.76H420.47v-.76h1a4.7,4.7,0,0,0,3.39-1.37,4.8,4.8,0,0,0,1.49-3.36V77.37A4.9,4.9,0,0,0,424.85,74a4.62,4.62,0,0,0-3.39-1.41h-1v-.76h20.58q6.93,0,10.9,3.85a13.29,13.29,0,0,1,4,10,15.93,15.93,0,0,1-3.77,10.6,11.62,11.62,0,0,1-9.19,4.45,10.4,10.4,0,0,1,2.71,2.1,26.84,26.84,0,0,1,2.78,3.24q6.56,9.38,8.54,11.55t2.82,3q.84.8,1.83,1.56a10.11,10.11,0,0,0,2,1.22,10.74,10.74,0,0,0,4.72,1.07v.76h-4.19a15.52,15.52,0,0,1-6.09-1.18,15.37,15.37,0,0,1-4.23-2.44,25.48,25.48,0,0,1-2.44-2.44q-1-1.18-5.68-7.89t-5.41-7.66c-.51-.63-1-1.25-1.6-1.86q-2.44-2.59-4.88-2.6v-.76a13.41,13.41,0,0,0,1.6.08c.66,0,1.47,0,2.44-.08q9.45-.22,11.89-7.92a10.18,10.18,0,0,0,.46-2.86V85.83a13.49,13.49,0,0,0-2.67-8.23,8.92,8.92,0,0,0-6.79-3.35C439.53,74.2,438,74.17,436.17,74.17ZM470.93,79a4.86,4.86,0,0,0,2.89-2,4.4,4.4,0,0,0,.76-2,5.66,5.66,0,0,0-1.6-3.74,6.7,6.7,0,0,1-1.37-1.9,3.36,3.36,0,0,1,.23-2.13,2.58,2.58,0,0,1,2.59-1.53,3.22,3.22,0,0,1,3.24,2.17,11.23,11.23,0,0,1,.88,4.16,7.53,7.53,0,0,1-1.22,4,7.29,7.29,0,0,1-6.25,3.58Zm20,25.92a18.07,18.07,0,0,0-4,11.2,12.57,12.57,0,0,0,6,11.13,13.93,13.93,0,0,0,8,2.36,16.17,16.17,0,0,0,7.74-1.75q6.16-3.21,6.94-10.75a9.45,9.45,0,0,0,.07-1.07,14.27,14.27,0,0,0-1.56-6.09,17,17,0,0,0-5.07-6L495.39,93.07a11,11,0,0,1-4.5-9.07,13.3,13.3,0,0,1,3.59-9.41,12.59,12.59,0,0,1,9.68-3.85,32.59,32.59,0,0,1,6.63.76h3.05l.15,9.38h-.76a7.3,7.3,0,0,0-2.63-5.76A9.82,9.82,0,0,0,504.19,73a8.79,8.79,0,0,0-9,9.11,8.2,8.2,0,0,0,3.36,6.67l14.1,11.12q8.39,6.63,8.38,16a15.68,15.68,0,0,1-5.56,12c-3.21,2.9-7.47,4.35-12.81,4.35a19.84,19.84,0,0,1-8.69-1.83,14.78,14.78,0,0,1-8.61-11.44,17.36,17.36,0,0,1-.23-3.08,17.57,17.57,0,0,1,1.07-5.11,18.11,18.11,0,0,1,4.11-6.52Z"/></g><g id="m"><path class="cls-2" d="M110.66,78.82,95.23,113.68A51.56,51.56,0,0,0,90.8,127H89.49L55.7,53.54,50,118.38a4.62,4.62,0,0,0,1.37,3.91,4.89,4.89,0,0,0,3.59,1.7H57v1.17H31.7v-1.3h2.09A9.61,9.61,0,0,0,40,121.71,9.24,9.24,0,0,0,43.31,116L51.53,44.8Q40,22.23,24,22.23c-1,0-2,.05-3,.13v-1.3a24,24,0,0,1,5.74-.92c1.48,0,3.09.07,4.83.2a29.65,29.65,0,0,1,6.13,1.24,25.86,25.86,0,0,1,6.65,3.06,40.3,40.3,0,0,1,5.48,4.18,41.23,41.23,0,0,1,4.44,4.76,55.35,55.35,0,0,1,5.61,9L70.62,65.85h-.4a1,1,0,0,0-1,1v.51a1,1,0,0,0,1,1h1.56l19.54,42.32,15.2-34.06a16.34,16.34,0,0,0,2.32,1.46A12.19,12.19,0,0,0,110.66,78.82Zm62.59,67.48a29.12,29.12,0,0,1-21.72-9.39q-9.08-9.41-11.81-27.66L127.59,32h-1.18L108.63,71.87a17.52,17.52,0,0,0,1.36,1.5,10.86,10.86,0,0,0,2.32,1.72l10.06-22.72,8,58.05q2.34,17.49,13.3,28.44a28.16,28.16,0,0,0,11.94,7.31,40.46,40.46,0,0,0,11.09,2,57.49,57.49,0,0,0,8.15-.53v-1.3Z"/></g><g id="a"><path class="cls-2" d="M76.72,30.06a16.66,16.66,0,0,1,6.36-1.37,9.21,9.21,0,0,1,5.23,1.88,13.69,13.69,0,0,1,3.3,4,44.78,44.78,0,0,1,3.1,7.37l6.2,17.58a48.31,48.31,0,0,0,4.35,9.38,28.5,28.5,0,0,0,4,5.23,10.6,10.6,0,0,0,3.81,2.46,10,10,0,0,0,3.27.71,11.59,11.59,0,0,0,2.32-.2l0,.51a15.13,15.13,0,0,1-4.78.81,10.22,10.22,0,0,1-4.67-1.19,16.32,16.32,0,0,1-4.37-3.33q-4.38-4.42-7.42-13.46l-2-5.8H81.6l-3.5,9a3.11,3.11,0,0,0-.26,1.22,2.12,2.12,0,0,0,.54,1.29,1.94,1.94,0,0,0,1.65.69h.4v.51H70.22v-.51h.46a4.46,4.46,0,0,0,2.39-.74A5.54,5.54,0,0,0,75,63.9L87.6,33.72q-2.75-3.91-6.81-3.91a11.36,11.36,0,0,0-3.91.76Zm5.44,23H95L91,41.24a46.58,46.58,0,0,0-2.13-5.34Z"/></g></g></svg>