<svg id="Logotype" xmlns="http://www.w3.org/2000/svg" viewBox="0 0 502 183.41"><title>logo.black</title><path d="M147.55,166.82h1.31v.69H134.71v-.69H136a4.1,4.1,0,0,0,2.95-1.2,4,4,0,0,0,1.23-3V129.23c1.11.23,2.16.4,3.16.53V162.7a3.93,3.93,0,0,0,1.24,2.92A4.09,4.09,0,0,0,147.55,166.82ZM140.08,123a27.45,27.45,0,0,0,6.8,2.48l-6.61-7.06h-.68l.13,1.09C139.88,120.6,140,121.77,140.08,123Zm32-2.87h1.31a4.09,4.09,0,0,1,2.95,1.2,4.3,4.3,0,0,1,1.31,3v34.06L151,129.85c-1.38.09-2.82.13-4.32.13-.63,0-1.31,0-2-.09l36.13,38.58h.61l-.13-1.23a56.77,56.77,0,0,1-.48-7.56V124.25a4.18,4.18,0,0,1,1.3-2.92,4.09,4.09,0,0,1,2.95-1.2h1.24v-.68H172.13Zm93.87-.75H237.84a13.28,13.28,0,0,0-5.9,1.27,9.08,9.08,0,0,0-3.78,3.09,7.79,7.79,0,0,0-1.16,4.32,7.94,7.94,0,0,0,2.12,5.05l.55-.34a8.94,8.94,0,0,1-1.1-4.09,6.26,6.26,0,0,1,1.31-3.74c1.65-2.34,4.3-3.5,8-3.5H252.2v41.2a4.39,4.39,0,0,1-4.4,4.18h-.89v.69h15v-.69h-.9a4.61,4.61,0,0,1-2.19-.54,4.16,4.16,0,0,1-2.2-3.71V121.44h13a4.18,4.18,0,0,1,3.92,4.12v1.16l.69.07v-8.65a19,19,0,0,1-3.61.83A30.51,30.51,0,0,1,266,119.38Zm118.85,57.06a25.79,25.79,0,0,1-4.56-3.2q-2.58-2.16-5.94-5.52T359.1,151.24c-2-2.2-3.73-4.12-5.28-5.77h.07a10.34,10.34,0,0,0,8.23-4,14.43,14.43,0,0,0,3.37-9.61,11.72,11.72,0,0,0-3.67-9,13.77,13.77,0,0,0-9.72-3.39H333.56v.68h.89a4.21,4.21,0,0,1,3.06,1.27,4.44,4.44,0,0,1,1.34,3.06v38.11a4.46,4.46,0,0,1-4.4,4.25h-.89v.69h15l-.07-.69h-.82a4.39,4.39,0,0,1-4.4-4.32V121.57h8.52a7.55,7.55,0,0,1,6.28,3.09,13.23,13.23,0,0,1,2.23,8q0,6-4,8.65a8.43,8.43,0,0,1-2.54,1.2,17.71,17.71,0,0,1-2.85.62c-.89.11-2.67.17-5.32.17V144c.87.09,2.1,1,3.71,2.81s4.85,5.39,9.75,10.82,8.2,9.12,9.92,11.09a44.59,44.59,0,0,0,5.73,5.49,23.63,23.63,0,0,0,3.43,2.54,26.25,26.25,0,0,0,3.68,1.82,16.68,16.68,0,0,0,3.67,1.06,24.34,24.34,0,0,0,3.95.28,20.14,20.14,0,0,0,5.11-.76v-.68a10,10,0,0,1-1.64.13A16.79,16.79,0,0,1,384.85,176.44Zm30.08-20.05a16.87,16.87,0,0,1-4.46,6.73q-2.69,2.26-7.76,2.26H388.08V144.85H401.2a3.35,3.35,0,0,1,2.3,1,3.27,3.27,0,0,1,.92,2.34v1h.69V138.4h-.69v1a3.26,3.26,0,0,1-1,2.4,3.41,3.41,0,0,1-2.33,1H388.08V121.57h7.83a4.05,4.05,0,0,1,3.84,4.06v1.23h.69v-8.65a19.17,19.17,0,0,1-3.54.82,28.11,28.11,0,0,1-4.63.42H378.33l.07.68h.82a4.54,4.54,0,0,1,3.09,1.14,3.54,3.54,0,0,1,1.31,2.78V162.5a4.44,4.44,0,0,1-1.34,3.05,4.17,4.17,0,0,1-3.06,1.27h-.89v.69h33.3l4-11.12Zm-161.7,24.24.06.68a20.38,20.38,0,0,1-6.45,1.1,13.86,13.86,0,0,1-6.32-1.61,22.21,22.21,0,0,1-5.9-4.5q-5.91-6-10-18.2l-2.68-7.82H203.1l-4.74,12.22a4.24,4.24,0,0,0-.34,1.65,2.91,2.91,0,0,0,.72,1.75,2.63,2.63,0,0,0,2.23.92h.55v.69h-13.8v-.69h.62a6,6,0,0,0,3.23-1,7.4,7.4,0,0,0,2.6-3l17-40.78q-3.7-5.3-9.2-5.29a15.27,15.27,0,0,0-5.28,1l-.21-.69a22.43,22.43,0,0,1,8.58-1.85,12.4,12.4,0,0,1,7.07,2.54,18.28,18.28,0,0,1,4.47,5.35,62.37,62.37,0,0,1,4.19,10l8.37,23.76a66.69,66.69,0,0,0,5.87,12.67,39.23,39.23,0,0,0,5.46,7.07,14.71,14.71,0,0,0,5.15,3.33,13.75,13.75,0,0,0,4.43,1A16.37,16.37,0,0,0,253.23,180.63Zm-32-32.41-5.43-16a60.69,60.69,0,0,0-2.88-7.21l-9.06,23.21Zm92.08-28.09h1.09a3.68,3.68,0,0,1,2.55.93,3.27,3.27,0,0,1,1.09,2.37v27.12q0,7.08-4.18,11.43a14.47,14.47,0,0,1-10.92,4.36,13.55,13.55,0,0,1-10.75-4.6q-4-4.59-4-12.08V123.43a3.32,3.32,0,0,1,1.1-2.37,3.67,3.67,0,0,1,2.54-.93h1.1v-.68H279v.68h1.1a4.17,4.17,0,0,1,1.86.41,3.21,3.21,0,0,1,1.78,3v27.05q0,8,5.25,12.94t13.7,4.91q8.44,0,13.53-4.94t5.08-13V123.36a3.16,3.16,0,0,1,1.13-2.3,3.7,3.7,0,0,1,2.51-.93H326v-.68h-12.7Zm-162-49.86a13,13,0,0,1-.15-2.21,11,11,0,0,1,.61-3.28,14.84,14.84,0,0,1,8.76-9.29,20.11,20.11,0,0,1,8.16-1.6q10.05,0,15.58,7.08t5.53,17.38q0,11.9-7,19.17t-18,7.28q-11,0-18-7.24t-7-20.12a39.11,39.11,0,0,1,2.17-13.11,18.13,18.13,0,0,1,7.12-9.45l-.45-.69a26.11,26.11,0,0,0-10.9,9.91A27.51,27.51,0,0,0,134,78.58q0,12.65,8.8,20.58T165,107.09q13.33,0,22-8a26,26,0,0,0,8.69-20q0-12-7.36-19.78t-19-7.73a22.21,22.21,0,0,0-9.84,2A19,19,0,0,0,156,55.71a12.11,12.11,0,0,0-2.56,2.67,24.54,24.54,0,0,0-1.75,3,11.52,11.52,0,0,0-1,3.17c-.18,1.06-.29,1.9-.34,2.51s-.08,1.16-.08,1.64a5.75,5.75,0,0,0,.31,1.71ZM258.78,53.43v-.76h-15.7v.76h1.45a4.55,4.55,0,0,1,3.28,1.33,4.78,4.78,0,0,1,1.45,3.32v37.8L207.72,51.52H207l.15,1.22a59,59,0,0,1,.53,8.31v39.56a4.44,4.44,0,0,1-1.37,3.31,4.56,4.56,0,0,1-3.28,1.34h-1.45V106h15.7v-.76H215.8a4.54,4.54,0,0,1-3.28-1.34,4.33,4.33,0,0,1-1.37-3.24v-38l41.54,44.36h.68l-.15-1.38a62.07,62.07,0,0,1-.53-8.38V58a4.63,4.63,0,0,1,1.44-3.24,4.55,4.55,0,0,1,3.28-1.33Zm11.05,31.78a18.11,18.11,0,0,0-4.11,6.52,17.58,17.58,0,0,0-1.07,5.1,17.41,17.41,0,0,0,.23,3.09,14.73,14.73,0,0,0,8.61,11.43,19.84,19.84,0,0,0,8.69,1.83c5.34,0,9.6-1.45,12.81-4.34a15.69,15.69,0,0,0,5.56-12q0-9.37-8.38-16l-14.1-11.13A8.19,8.19,0,0,1,274.71,63a8.79,8.79,0,0,1,9-9.1A9.77,9.77,0,0,1,290.15,56a7.3,7.3,0,0,1,2.63,5.76h.76l-.15-9.38h-3.05a31.9,31.9,0,0,0-6.63-.76A12.55,12.55,0,0,0,274,55.45a13.29,13.29,0,0,0-3.59,9.41,11,11,0,0,0,4.5,9.07l13.72,10.82a17.11,17.11,0,0,1,5.07,6,14.31,14.31,0,0,1,1.56,6.1,7.71,7.71,0,0,1-.08,1.07c-.5,5-2.82,8.61-6.93,10.75a16.28,16.28,0,0,1-7.74,1.75,13.93,13.93,0,0,1-8-2.36,12.6,12.6,0,0,1-6-11.13,18.1,18.1,0,0,1,4-11.21Zm78.36-24.47.76.08v-9.6a26.74,26.74,0,0,1-3,.8,28.4,28.4,0,0,1-6.22.57H314a32,32,0,0,1-5.18-.46,21.1,21.1,0,0,1-4-.91v9.6l.76-.08V59.45a4.44,4.44,0,0,1,1.26-3.16,4.34,4.34,0,0,1,3.08-1.41h14.49v45.73a4.91,4.91,0,0,1-4.88,4.65h-1V106h16.69v-.76h-1a4.67,4.67,0,0,1-3.39-1.38,4.76,4.76,0,0,1-1.49-3.35V54.88h14.48a4.64,4.64,0,0,1,4.35,4.57ZM355,105.26V106h37l4.42-12.35h-.76a18.67,18.67,0,0,1-4.95,7.47c-2,1.68-4.86,2.52-8.61,2.52H365.79V80.87h14.56A3.67,3.67,0,0,1,382.9,82a3.57,3.57,0,0,1,1,2.59v1.14h.76v-12h-.76v1.07a3.63,3.63,0,0,1-1.07,2.67,3.8,3.8,0,0,1-2.59,1.14H365.79V55h8.69a4.5,4.5,0,0,1,4.27,4.5V60.9h.76V51.29a20.9,20.9,0,0,1-3.92.92,32.52,32.52,0,0,1-5.15.46H355l.08.76H356a5.07,5.07,0,0,1,3.43,1.26,3.93,3.93,0,0,1,1.45,3.08v42.68a4.91,4.91,0,0,1-1.49,3.4,4.62,4.62,0,0,1-3.39,1.41ZM420.74,55.1a9,9,0,0,1,6.79,3.36,13.49,13.49,0,0,1,2.67,8.23V68.4a10.13,10.13,0,0,1-.46,2.86Q427.3,79,417.85,79.19c-1,0-1.78.08-2.44.08a13.41,13.41,0,0,1-1.6-.08V80c1.62,0,3.25.87,4.88,2.59.56.61,1.09,1.24,1.6,1.87s2.31,3.19,5.41,7.66,5,7.1,5.68,7.89a25.48,25.48,0,0,0,2.44,2.44,15.37,15.37,0,0,0,4.23,2.44,15.7,15.7,0,0,0,6.09,1.18h4.19v-.76a10.74,10.74,0,0,1-4.72-1.07,10.61,10.61,0,0,1-2-1.22q-1-.77-1.83-1.56c-.56-.54-1.5-1.53-2.82-3s-4.17-5.29-8.54-11.54a26.84,26.84,0,0,0-2.78-3.24,10.4,10.4,0,0,0-2.71-2.1,11.6,11.6,0,0,0,9.19-4.46,15.88,15.88,0,0,0,3.77-10.59,13.32,13.32,0,0,0-4-10q-4-3.84-10.9-3.84H400.47v.76h1a4.62,4.62,0,0,1,3.39,1.41,4.9,4.9,0,0,1,1.49,3.39v42.3a4.76,4.76,0,0,1-1.49,3.35,4.67,4.67,0,0,1-3.39,1.38h-1V106h16.69l-.07-.76h-.92a4.72,4.72,0,0,1-3.47-1.41,4.63,4.63,0,0,1-1.41-3.4V55h4.88C418,55,419.53,55.05,420.74,55.1Zm30.34,5.34a7.29,7.29,0,0,0,6.25-3.58,7.53,7.53,0,0,0,1.22-4,11.18,11.18,0,0,0-.88-4.15,3.21,3.21,0,0,0-3.24-2.17,2.58,2.58,0,0,0-2.59,1.52,3.38,3.38,0,0,0-.23,2.14,6.85,6.85,0,0,0,1.37,1.9,5.66,5.66,0,0,1,1.6,3.74,4.44,4.44,0,0,1-.76,2,5,5,0,0,1-2.89,2Zm19.2,24.77a18.11,18.11,0,0,0-4.11,6.52,17.58,17.58,0,0,0-1.07,5.1,17.41,17.41,0,0,0,.23,3.09,14.75,14.75,0,0,0,8.61,11.43,19.84,19.84,0,0,0,8.69,1.83c5.34,0,9.6-1.45,12.81-4.34a15.69,15.69,0,0,0,5.56-12q0-9.37-8.38-16l-14.1-11.13A8.19,8.19,0,0,1,475.16,63a8.79,8.79,0,0,1,9-9.1A9.77,9.77,0,0,1,490.6,56a7.3,7.3,0,0,1,2.63,5.76H494l-.15-9.38h-3a31.9,31.9,0,0,0-6.63-.76,12.55,12.55,0,0,0-9.68,3.85,13.29,13.29,0,0,0-3.59,9.41,11,11,0,0,0,4.5,9.07l13.72,10.82a17.11,17.11,0,0,1,5.07,6,14.31,14.31,0,0,1,1.56,6.1,9.61,9.61,0,0,1-.07,1.07q-.76,7.55-6.94,10.75a16.28,16.28,0,0,1-7.74,1.75,13.93,13.93,0,0,1-8-2.36A12.6,12.6,0,0,1,467,97a18.1,18.1,0,0,1,4-11.21ZM88.84,58.94a15.56,15.56,0,0,1-2.32-1.47L71.32,91.54,51.78,49.21H50.22a1,1,0,0,1-1-1v-.5a1,1,0,0,1,1-1h.4L39.88,23.44a55.35,55.35,0,0,0-5.61-9,41.23,41.23,0,0,0-4.44-4.76A40.3,40.3,0,0,0,24.35,5.5,25.21,25.21,0,0,0,17.7,2.44,29.65,29.65,0,0,0,11.57,1.2C9.83,1.07,8.22,1,6.74,1A24.38,24.38,0,0,0,1,1.91V3.22c1-.09,2-.13,3-.13q16,0,27.53,22.57L23.31,96.89A9.19,9.19,0,0,1,20,102.56a9.57,9.57,0,0,1-6.19,2.16H11.7V106H37v-1.17H34.92a4.93,4.93,0,0,1-3.59-1.7A4.63,4.63,0,0,1,30,99.24L35.7,34.4l33.79,73.45H70.8a51.43,51.43,0,0,1,4.43-13.31L90.66,59.68A13.36,13.36,0,0,1,88.84,58.94Zm64.41,68.22a29.09,29.09,0,0,1-21.72-9.4q-9.07-9.39-11.81-27.65L107.59,12.87h-1.18L88.63,52.73A17.29,17.29,0,0,0,90,54.22,10.59,10.59,0,0,0,92.31,56l10.06-22.73,8,58.06q2.34,17.49,13.3,28.44A28.16,28.16,0,0,0,135.57,127,40.39,40.39,0,0,0,146.66,129a57.58,57.58,0,0,0,8.15-.52v-1.3ZM56.88,11.43a11.38,11.38,0,0,1,3.91-.77q4.07,0,6.81,3.92L55,44.76A5.54,5.54,0,0,1,53.07,47a4.46,4.46,0,0,1-2.39.74h-.46v.5H60.43v-.5H60A1.94,1.94,0,0,1,58.38,47a2.15,2.15,0,0,1-.54-1.3,3.19,3.19,0,0,1,.26-1.22l3.5-9H75.52l2,5.79q3,9,7.42,13.47a16.32,16.32,0,0,0,4.37,3.33A10.22,10.22,0,0,0,94,59.24a15.13,15.13,0,0,0,4.78-.81l0-.51a12.38,12.38,0,0,1-2.32.2,10.23,10.23,0,0,1-3.27-.71A10.6,10.6,0,0,1,89.3,55a28.62,28.62,0,0,1-4-5.24,48.19,48.19,0,0,1-4.35-9.37l-6.2-17.58a44.78,44.78,0,0,0-3.1-7.37,13.55,13.55,0,0,0-3.3-4,9.14,9.14,0,0,0-5.23-1.88,16.47,16.47,0,0,0-6.36,1.37Zm12,5.33A46.58,46.58,0,0,1,71,22.1l4,11.84H62.16Z"/></svg>